<?xml version="1.0" encoding="UTF-8" standalone="no"?>
<!-- Created with Inkscape (http://www.inkscape.org/) -->

<svg
   xmlns:dc="http://purl.org/dc/elements/1.1/"
   xmlns:cc="http://creativecommons.org/ns#"
   xmlns:rdf="http://www.w3.org/1999/02/22-rdf-syntax-ns#"
   xmlns:svg="http://www.w3.org/2000/svg"
   xmlns="http://www.w3.org/2000/svg"
   xmlns:sodipodi="http://sodipodi.sourceforge.net/DTD/sodipodi-0.dtd"
   xmlns:inkscape="http://www.inkscape.org/namespaces/inkscape"
   width="297mm"
   height="210mm"
   id="svg4846"
   version="1.1"
   inkscape:version="0.48.3.1 r9886"
   sodipodi:docname="0.svg">
  <defs
     id="defs4848" />
  <sodipodi:namedview
     inkscape:document-units="mm"
     pagecolor="#ffffff"
     bordercolor="#666666"
     borderopacity="1.0"
     inkscape:pageopacity="0.0"
     inkscape:pageshadow="2"
     inkscape:zoom="0.43415836"
     inkscape:cx="215.90646"
     inkscape:cy="380"
     inkscape:current-layer="layer1"
     id="namedview4850"
     showgrid="false"
     inkscape:window-width="1280"
     inkscape:window-height="977"
     inkscape:window-x="-3"
     inkscape:window-y="-3"
     inkscape:window-maximized="1" />
  <metadata
     id="metadata4852">
    <rdf:RDF>
      <cc:Work
         rdf:about="">
        <dc:format>image/svg+xml</dc:format>
        <dc:type
           rdf:resource="http://purl.org/dc/dcmitype/StillImage" />
        <dc:title></dc:title>
      </cc:Work>
    </rdf:RDF>
  </metadata>
  <g
     inkscape:label="Layer 1"
     inkscape:groupmode="layer"
     id="layer1">
    <g
       id="g5343"
       transform="translate(31.368995,-1.7349063e-5)">
      <g
         transform="matrix(7.9515985,0,0,11.220135,-478.11369,-1093.9307)"
         id="g4025"
         style="font-size:144px;font-style:normal;font-variant:normal;font-weight:normal;font-stretch:normal;text-align:start;line-height:125%;letter-spacing:0px;word-spacing:0px;writing-mode:lr-tb;text-anchor:start;fill:#ffcc00;fill-opacity:1;stroke:#9c6000;stroke-width:0.39521116;stroke-miterlimit:4;stroke-opacity:1;stroke-dasharray:none;font-family:Serif;-inkscape-font-specification:Serif">
        <path
           style="fill:#ffcc00;fill-opacity:1;fill-rule:evenodd;stroke:#9c6000;stroke-width:0.39521116;stroke-miterlimit:4;stroke-opacity:1;stroke-dasharray:none"
           inkscape:connector-curvature="0"
           clip-rule="evenodd"
           d="m 116.335,151.142 c 0,-2.037 1.652,-3.689 3.689,-3.689 h 4.344 c 2.037,0 3.689,1.652 3.689,3.689 v 4.344 c 0,2.037 -1.652,3.688 -3.689,3.688 h -4.344 c -2.037,0 -3.689,-1.651 -3.689,-3.688 v -4.344 z"
           id="path4027" />
        <path
           style="fill:#ffcc00;fill-opacity:1;stroke:#9c6000;stroke-width:0.39521116;stroke-miterlimit:4;stroke-opacity:1;stroke-dasharray:none"
           inkscape:connector-curvature="0"
           clip-rule="evenodd"
           stroke-miterlimit="3.8637"
           d="m 116.335,151.142 c 0,-2.037 1.652,-3.689 3.689,-3.689 h 4.344 c 2.037,0 3.689,1.652 3.689,3.689 v 4.344 c 0,2.037 -1.652,3.688 -3.689,3.688 h -4.344 c -2.037,0 -3.689,-1.651 -3.689,-3.688 v -4.344 z"
           id="path4029" />
      </g>
      <path
         style="font-size:144px;font-style:normal;font-variant:normal;font-weight:normal;font-stretch:normal;text-align:start;line-height:125%;letter-spacing:0px;word-spacing:0px;writing-mode:lr-tb;text-anchor:start;fill:#ffcc00;fill-opacity:1;stroke:#9c6000;stroke-width:3.73297834;stroke-miterlimit:4;stroke-opacity:1;stroke-dasharray:none;font-family:Serif;-inkscape-font-specification:Serif"
         inkscape:connector-curvature="0"
         clip-rule="evenodd"
         stroke-miterlimit="3.8637"
         d="m 468.39707,610.85451 v 51.61181 c 0,0 5.55011,-5.83984 12.22151,-5.83984 6.67143,0 14.19364,17.53405 14.19364,17.53405 0,0 7.51419,-17.53405 14.19358,-17.53405 6.6634,0 12.21362,5.83984 12.21362,5.83984 v -51.61181"
         id="path4031" />
      <g
         transform="matrix(7.9515985,0,0,11.220135,-478.11369,-1093.9307)"
         id="g4209"
         style="font-size:144px;font-style:normal;font-variant:normal;font-weight:normal;font-stretch:normal;text-align:start;line-height:125%;letter-spacing:0px;word-spacing:0px;writing-mode:lr-tb;text-anchor:start;fill:#ffcc00;fill-opacity:1;stroke:#9c6000;stroke-width:0.39521116;stroke-miterlimit:4;stroke-opacity:1;stroke-dasharray:none;font-family:Serif;-inkscape-font-specification:Serif">
        <polygon
           style="fill:#ffcc00;fill-opacity:1;fill-rule:evenodd;stroke:#9c6000;stroke-width:0.39521116;stroke-miterlimit:4;stroke-opacity:1;stroke-dasharray:none"
           clip-rule="evenodd"
           points="112.026,157.957 122.355,152.685 85.609,103.172 73.117,103.172 73.117,157.957 "
           id="polygon4211" />
        <polygon
           style="fill:#ffcc00;fill-opacity:1;stroke:#9c6000;stroke-width:0.39521116;stroke-miterlimit:4;stroke-opacity:1;stroke-dasharray:none"
           clip-rule="evenodd"
           stroke-miterlimit="3.8637"
           points="112.026,157.957 122.355,152.685 85.609,103.172 73.117,103.172 73.117,157.957 "
           id="polygon4213" />
      </g>
      <g
         transform="matrix(7.9515985,0,0,11.220135,-478.11369,-1093.9307)"
         id="g4215"
         style="font-size:144px;font-style:normal;font-variant:normal;font-weight:normal;font-stretch:normal;text-align:start;line-height:125%;letter-spacing:0px;word-spacing:0px;writing-mode:lr-tb;text-anchor:start;fill:#ffffff;fill-opacity:1;stroke:#9c6000;stroke-width:0.39521116;stroke-miterlimit:4;stroke-opacity:1;stroke-dasharray:none;font-family:Serif;-inkscape-font-specification:Serif">
        <path
           style="fill:#ffffff;fill-opacity:1;fill-rule:evenodd;stroke:#9c6000;stroke-width:0.39521116;stroke-miterlimit:4;stroke-opacity:1;stroke-dasharray:none"
           inkscape:connector-curvature="0"
           clip-rule="evenodd"
           d="m 75.719,106.945 -0.391,47.888 c 0,0 13.404,0.391 17.178,0.391 3.773,0 12.362,-0.391 15.485,-0.391 2.684,0 4.474,0.139 5.856,0.651 1.705,0.632 1.627,0.716 1.627,0.716 l 6.881,-3.51 v -46.916 c 0,0 -4.734,-2.082 -13.323,-2.082 -8.588,0 -12.883,1.041 -15.616,1.041 -1.92,0 -5.698,-1.135 -9.078,-2.595 l -8.619,4.807 z"
           id="path4217" />
        <path
           style="fill:#ffffff;fill-opacity:1;stroke:#9c6000;stroke-width:0.39521116;stroke-miterlimit:4;stroke-opacity:1;stroke-dasharray:none"
           inkscape:connector-curvature="0"
           clip-rule="evenodd"
           stroke-miterlimit="3.8637"
           d="m 75.719,106.945 -0.391,47.888 c 0,0 13.404,0.391 17.178,0.391 3.773,0 12.362,-0.391 15.485,-0.391 2.684,0 4.474,0.139 5.856,0.651 1.705,0.632 1.627,0.716 1.627,0.716 l 6.881,-3.51 v -46.916 c 0,0 -4.734,-2.082 -13.323,-2.082 -8.588,0 -12.883,1.041 -15.616,1.041 -1.92,0 -5.698,-1.135 -9.078,-2.595 l -8.619,4.807 z"
           id="path4219" />
      </g>
      <g
         transform="matrix(7.9515985,0,0,11.220135,-478.11369,-1093.9307)"
         id="g4221"
         style="font-size:144px;font-style:normal;font-variant:normal;font-weight:normal;font-stretch:normal;text-align:start;line-height:125%;letter-spacing:0px;word-spacing:0px;writing-mode:lr-tb;text-anchor:start;fill:#000000;fill-opacity:1;stroke:#9c6000;stroke-width:0.39521116;stroke-miterlimit:4;stroke-opacity:1;stroke-dasharray:none;font-family:Serif;-inkscape-font-specification:Serif">
        <path
           style="fill:#d4b576;fill-rule:evenodd;stroke:#9c6000;stroke-width:0.39521116;stroke-miterlimit:4;stroke-opacity:1;stroke-dasharray:none"
           inkscape:connector-curvature="0"
           clip-rule="evenodd"
           d="m 77.548,105.897 -0.007,47.375 c 0,0 11.061,0.503 14.835,0.503 3.774,0 12.883,-0.461 16.006,-0.461 2.684,0 4.8,0.153 6.182,0.666 1.705,0.632 2.68,1.245 2.68,1.245 l 5.111,-2.535 v -46.916 c 0,0 -4.734,-2.082 -13.323,-2.082 -8.588,0 -12.883,1.041 -15.616,1.041 -1.92,0 -5.698,-1.135 -9.078,-2.595 l -6.79,3.759 z"
           id="path4223" />
        <path
           style="fill:none;stroke:#9c6000;stroke-width:0.39521116;stroke-miterlimit:4;stroke-opacity:1;stroke-dasharray:none"
           inkscape:connector-curvature="0"
           clip-rule="evenodd"
           stroke-miterlimit="3.8637"
           d="m 77.548,105.897 -0.007,47.375 c 0,0 11.061,0.503 14.835,0.503 3.774,0 12.883,-0.461 16.006,-0.461 2.684,0 4.8,0.153 6.182,0.666 1.705,0.632 2.68,1.245 2.68,1.245 l 5.111,-2.535 v -46.916 c 0,0 -4.734,-2.082 -13.323,-2.082 -8.588,0 -12.883,1.041 -15.616,1.041 -1.92,0 -5.698,-1.135 -9.078,-2.595 l -6.79,3.759 z"
           id="path4225" />
      </g>
      <g
         transform="matrix(7.9515985,0,0,11.220135,-478.11369,-1093.9307)"
         id="g4227"
         style="font-size:144px;font-style:normal;font-variant:normal;font-weight:normal;font-stretch:normal;text-align:start;line-height:125%;letter-spacing:0px;word-spacing:0px;writing-mode:lr-tb;text-anchor:start;fill:#ffffff;fill-opacity:1;stroke:#9c6000;stroke-width:0.39521116;stroke-miterlimit:4;stroke-opacity:1;stroke-dasharray:none;font-family:Serif;-inkscape-font-specification:Serif">
        <path
           style="fill:#ffffff;fill-rule:evenodd;stroke:#9c6000;stroke-width:0.39521116;stroke-miterlimit:4;stroke-opacity:1;stroke-dasharray:none"
           inkscape:connector-curvature="0"
           clip-rule="evenodd"
           d="m 79.883,104.733 0.05,47.166 c 0,0 8.669,0.545 12.443,0.545 3.774,0 12.883,-0.512 16.006,-0.512 4.113,0 7.331,0.742 8.458,1.229 1.669,0.719 2.245,1.329 2.245,1.329 l 3.27,-1.8 v -46.916 c 0,0 -4.734,-2.082 -13.323,-2.082 -8.588,0 -12.883,1.041 -15.616,1.041 -1.92,0 -5.698,-1.135 -9.078,-2.595 l -4.455,2.595 z"
           id="path4229" />
        <path
           style="fill:#ffffff;stroke:#9c6000;stroke-width:0.39521116;stroke-miterlimit:4;stroke-opacity:1;stroke-dasharray:none"
           inkscape:connector-curvature="0"
           clip-rule="evenodd"
           stroke-miterlimit="3.8637"
           d="m 79.883,104.733 0.05,47.166 c 0,0 8.669,0.545 12.443,0.545 3.774,0 12.883,-0.512 16.006,-0.512 4.113,0 7.331,0.742 8.458,1.229 1.669,0.719 2.245,1.329 2.245,1.329 l 3.27,-1.8 v -46.916 c 0,0 -4.734,-2.082 -13.323,-2.082 -8.588,0 -12.883,1.041 -15.616,1.041 -1.92,0 -5.698,-1.135 -9.078,-2.595 l -4.455,2.595 z"
           id="path4231" />
      </g>
      <g
         transform="matrix(7.9515985,0,0,11.220135,-478.11369,-1093.9307)"
         id="g4233"
         style="font-size:144px;font-style:normal;font-variant:normal;font-weight:normal;font-stretch:normal;text-align:start;line-height:125%;letter-spacing:0px;word-spacing:0px;writing-mode:lr-tb;text-anchor:start;fill:#000000;fill-opacity:1;stroke:#9c6000;stroke-width:0.39521116;stroke-miterlimit:4;stroke-opacity:1;stroke-dasharray:none;font-family:Serif;-inkscape-font-specification:Serif">
        <path
           style="fill:#d4b576;fill-rule:evenodd;stroke:#9c6000;stroke-width:0.39521116;stroke-miterlimit:4;stroke-opacity:1;stroke-dasharray:none"
           inkscape:connector-curvature="0"
           clip-rule="evenodd"
           d="m 82.096,103.692 v 46.326 c 0,0 6.506,0.911 10.28,0.911 3.774,0 12.883,-0.651 16.006,-0.651 4.113,0 7.331,0.556 8.458,1.042 1.669,0.72 4.164,2.082 4.164,2.082 l 1.351,-0.712 v -46.916 c 0,0 -4.734,-2.082 -13.323,-2.082 -8.588,0 -12.883,1.041 -15.616,1.041 -1.92,0 -5.698,-1.135 -9.078,-2.595 l -2.242,1.554 z"
           id="path4235" />
        <path
           style="fill:none;stroke:#9c6000;stroke-width:0.39521116;stroke-miterlimit:4;stroke-opacity:1;stroke-dasharray:none"
           inkscape:connector-curvature="0"
           clip-rule="evenodd"
           stroke-miterlimit="3.8637"
           d="m 82.096,103.692 v 46.326 c 0,0 6.506,0.911 10.28,0.911 3.774,0 12.883,-0.651 16.006,-0.651 4.113,0 7.331,0.556 8.458,1.042 1.669,0.72 4.164,2.082 4.164,2.082 l 1.351,-0.712 v -46.916 c 0,0 -4.734,-2.082 -13.323,-2.082 -8.588,0 -12.883,1.041 -15.616,1.041 -1.92,0 -5.698,-1.135 -9.078,-2.595 l -2.242,1.554 z"
           id="path4237" />
      </g>
      <path
         id="path4243"
         d="m 192.26965,53.4515 v 519.78394 c 0,0 51.74109,10.22155 81.75043,10.22155 30.00934,0 102.44044,-7.29306 127.27329,-7.29306 24.83279,0 57.94331,10.22155 66.22092,17.52582 8.27757,7.30432 27.2978,19.81478 27.2978,19.81478 V 72.368645 c 0,0 -20.04595,-18.917145 -88.34223,-18.917145 -68.29628,0 -102.44044,11.680161 -124.17218,11.680161 -21.73175,0 -90.02803,-11.680161 -90.02803,-11.680161 z"
         stroke-miterlimit="3.8637"
         clip-rule="evenodd"
         inkscape:connector-curvature="0"
         style="font-size:144px;font-style:normal;font-variant:normal;font-weight:normal;font-stretch:normal;text-align:start;line-height:125%;letter-spacing:0px;word-spacing:0px;writing-mode:lr-tb;text-anchor:start;fill:none;stroke:#9c6000;stroke-width:3.73297834;stroke-miterlimit:4;stroke-opacity:1;stroke-dasharray:none;font-family:Serif;-inkscape-font-specification:Serif" />
      <g
         transform="matrix(7.9515985,0,0,11.220135,-478.11369,-1093.9307)"
         id="g4245"
         style="font-size:144px;font-style:normal;font-variant:normal;font-weight:normal;font-stretch:normal;text-align:start;line-height:125%;letter-spacing:0px;word-spacing:0px;writing-mode:lr-tb;text-anchor:start;fill:#ffcc00;fill-opacity:1;stroke:#9c6000;stroke-width:0.39521116;stroke-miterlimit:4;stroke-opacity:1;stroke-dasharray:none;font-family:Serif;-inkscape-font-specification:Serif">
        <polygon
           style="fill:#ffcc00;fill-opacity:1;fill-rule:evenodd;stroke:#9c6000;stroke-width:0.39521116;stroke-miterlimit:4;stroke-opacity:1;stroke-dasharray:none"
           clip-rule="evenodd"
           points="132.685,157.957 123.106,153.117 159.102,103.172 171.595,103.172 171.595,157.957 "
           id="polygon4247" />
        <polygon
           style="fill:#ffcc00;fill-opacity:1;stroke:#9c6000;stroke-width:0.39521116;stroke-miterlimit:4;stroke-opacity:1;stroke-dasharray:none"
           clip-rule="evenodd"
           stroke-miterlimit="3.8637"
           points="132.685,157.957 123.106,153.117 159.102,103.172 171.595,103.172 171.595,157.957 "
           id="polygon4249" />
      </g>
      <g
         transform="matrix(7.9515985,0,0,11.220135,-478.11369,-1093.9307)"
         id="g4251"
         style="font-size:144px;font-style:normal;font-variant:normal;font-weight:normal;font-stretch:normal;text-align:start;line-height:125%;letter-spacing:0px;word-spacing:0px;writing-mode:lr-tb;text-anchor:start;fill:#ffffff;fill-opacity:1;stroke:#9c6000;stroke-width:0.39521116;stroke-miterlimit:4;stroke-opacity:1;stroke-dasharray:none;font-family:Serif;-inkscape-font-specification:Serif">
        <path
           style="fill:#ffffff;fill-opacity:1;fill-rule:evenodd;stroke:#9c6000;stroke-width:0.39521116;stroke-miterlimit:4;stroke-opacity:1;stroke-dasharray:none"
           inkscape:connector-curvature="0"
           clip-rule="evenodd"
           d="m 168.991,106.945 0.392,47.888 c 0,0 -13.404,0.391 -17.178,0.391 -3.774,0 -12.363,-0.391 -15.485,-0.391 -2.685,0 -4.475,0.139 -5.856,0.651 -1.705,0.632 -1.627,0.716 -1.627,0.716 l -6.881,-3.51 v -46.916 c 0,0 4.733,-2.082 13.323,-2.082 8.588,0 12.883,1.041 15.615,1.041 1.92,0 5.697,-1.135 9.077,-2.595 l 8.62,4.807 z"
           id="path4253" />
        <path
           style="fill:#ffffff;fill-opacity:1;stroke:#9c6000;stroke-width:0.39521116;stroke-miterlimit:4;stroke-opacity:1;stroke-dasharray:none"
           inkscape:connector-curvature="0"
           clip-rule="evenodd"
           stroke-miterlimit="3.8637"
           d="m 168.991,106.945 0.392,47.888 c 0,0 -13.404,0.391 -17.178,0.391 -3.774,0 -12.363,-0.391 -15.485,-0.391 -2.685,0 -4.475,0.139 -5.856,0.651 -1.705,0.632 -1.627,0.716 -1.627,0.716 l -6.881,-3.51 v -46.916 c 0,0 4.733,-2.082 13.323,-2.082 8.588,0 12.883,1.041 15.615,1.041 1.92,0 5.697,-1.135 9.077,-2.595 l 8.62,4.807 z"
           id="path4255" />
      </g>
      <g
         transform="matrix(7.9515985,0,0,11.220135,-478.11369,-1093.9307)"
         id="g4257"
         style="font-size:144px;font-style:normal;font-variant:normal;font-weight:normal;font-stretch:normal;text-align:start;line-height:125%;letter-spacing:0px;word-spacing:0px;writing-mode:lr-tb;text-anchor:start;fill:#d4b576;fill-opacity:1;stroke:#9c6000;stroke-width:0.39521116;stroke-miterlimit:4;stroke-opacity:1;stroke-dasharray:none;font-family:Serif;-inkscape-font-specification:Serif">
        <path
           style="fill:#d4b576;fill-opacity:1;fill-rule:evenodd;stroke:#9c6000;stroke-width:0.39521116;stroke-miterlimit:4;stroke-opacity:1;stroke-dasharray:none"
           inkscape:connector-curvature="0"
           clip-rule="evenodd"
           d="m 167.162,105.897 0.008,47.375 c 0,0 -11.062,0.503 -14.835,0.503 -3.773,0 -12.883,-0.461 -16.006,-0.461 -2.684,0 -4.801,0.153 -6.183,0.666 -1.705,0.632 -2.68,1.245 -2.68,1.245 l -5.111,-2.535 v -46.916 c 0,0 4.733,-2.082 13.323,-2.082 8.588,0 12.883,1.041 15.615,1.041 1.92,0 5.697,-1.135 9.077,-2.595 l 6.792,3.759 z"
           id="path4259" />
        <path
           style="fill:#d4b576;fill-opacity:1;stroke:#9c6000;stroke-width:0.39521116;stroke-miterlimit:4;stroke-opacity:1;stroke-dasharray:none"
           inkscape:connector-curvature="0"
           clip-rule="evenodd"
           stroke-miterlimit="3.8637"
           d="m 167.162,105.897 0.008,47.375 c 0,0 -11.062,0.503 -14.835,0.503 -3.773,0 -12.883,-0.461 -16.006,-0.461 -2.684,0 -4.801,0.153 -6.183,0.666 -1.705,0.632 -2.68,1.245 -2.68,1.245 l -5.111,-2.535 v -46.916 c 0,0 4.733,-2.082 13.323,-2.082 8.588,0 12.883,1.041 15.615,1.041 1.92,0 5.697,-1.135 9.077,-2.595 l 6.792,3.759 z"
           id="path4261" />
      </g>
      <g
         transform="matrix(7.9515985,0,0,11.220135,-478.11369,-1093.9307)"
         id="g4263"
         style="font-size:144px;font-style:normal;font-variant:normal;font-weight:normal;font-stretch:normal;text-align:start;line-height:125%;letter-spacing:0px;word-spacing:0px;writing-mode:lr-tb;text-anchor:start;fill:#ffffff;fill-opacity:1;stroke:#9c6000;stroke-width:0.39521116;stroke-miterlimit:4;stroke-opacity:1;stroke-dasharray:none;font-family:Serif;-inkscape-font-specification:Serif">
        <path
           style="fill:#ffffff;fill-rule:evenodd;stroke:#9c6000;stroke-width:0.39521116;stroke-miterlimit:4;stroke-opacity:1;stroke-dasharray:none"
           inkscape:connector-curvature="0"
           clip-rule="evenodd"
           d="m 164.828,104.733 -0.05,47.166 c 0,0 -8.67,0.545 -12.443,0.545 -3.773,0 -12.883,-0.512 -16.006,-0.512 -4.113,0 -7.332,0.742 -8.459,1.229 -1.67,0.719 -2.245,1.329 -2.245,1.329 l -3.27,-1.8 v -46.916 c 0,0 4.733,-2.082 13.323,-2.082 8.588,0 12.883,1.041 15.615,1.041 1.92,0 5.697,-1.135 9.077,-2.595 l 4.458,2.595 z"
           id="path4265" />
        <path
           style="fill:#ffffff;stroke:#9c6000;stroke-width:0.39521116;stroke-miterlimit:4;stroke-opacity:1;stroke-dasharray:none"
           inkscape:connector-curvature="0"
           clip-rule="evenodd"
           stroke-miterlimit="3.8637"
           d="m 164.828,104.733 -0.05,47.166 c 0,0 -8.67,0.545 -12.443,0.545 -3.773,0 -12.883,-0.512 -16.006,-0.512 -4.113,0 -7.332,0.742 -8.459,1.229 -1.67,0.719 -2.245,1.329 -2.245,1.329 l -3.27,-1.8 v -46.916 c 0,0 4.733,-2.082 13.323,-2.082 8.588,0 12.883,1.041 15.615,1.041 1.92,0 5.697,-1.135 9.077,-2.595 l 4.458,2.595 z"
           id="path4267" />
      </g>
      <g
         transform="matrix(7.9515985,0,0,11.220135,-478.11369,-1093.9307)"
         id="g4269"
         style="font-size:144px;font-style:normal;font-variant:normal;font-weight:normal;font-stretch:normal;text-align:start;line-height:125%;letter-spacing:0px;word-spacing:0px;writing-mode:lr-tb;text-anchor:start;fill:#d4b576;fill-opacity:1;stroke:#9c6000;stroke-width:0.39521116;stroke-miterlimit:4;stroke-opacity:1;stroke-dasharray:none;font-family:Serif;-inkscape-font-specification:Serif">
        <path
           style="fill:#d4b576;fill-opacity:1;fill-rule:evenodd;stroke:#9c6000;stroke-width:0.39521116;stroke-miterlimit:4;stroke-opacity:1;stroke-dasharray:none"
           inkscape:connector-curvature="0"
           clip-rule="evenodd"
           d="m 162.615,103.692 v 46.326 c 0,0 -6.507,0.911 -10.28,0.911 -3.773,0 -12.883,-0.651 -16.006,-0.651 -4.113,0 -7.332,0.556 -8.459,1.042 -1.67,0.72 -4.164,2.082 -4.164,2.082 l -1.351,-0.712 v -46.916 c 0,0 4.733,-2.082 13.323,-2.082 8.588,0 12.883,1.041 15.615,1.041 1.92,0 5.697,-1.135 9.077,-2.595 l 2.245,1.554 z"
           id="path4271" />
        <path
           style="fill:#d4b576;fill-opacity:1;stroke:#9c6000;stroke-width:0.39521116;stroke-miterlimit:4;stroke-opacity:1;stroke-dasharray:none"
           inkscape:connector-curvature="0"
           clip-rule="evenodd"
           stroke-miterlimit="3.8637"
           d="m 162.615,103.692 v 46.326 c 0,0 -6.507,0.911 -10.28,0.911 -3.773,0 -12.883,-0.651 -16.006,-0.651 -4.113,0 -7.332,0.556 -8.459,1.042 -1.67,0.72 -4.164,2.082 -4.164,2.082 l -1.351,-0.712 v -46.916 c 0,0 4.733,-2.082 13.323,-2.082 8.588,0 12.883,1.041 15.615,1.041 1.92,0 5.697,-1.135 9.077,-2.595 l 2.245,1.554 z"
           id="path4273" />
      </g>
      <g
         transform="matrix(7.9515985,0,0,11.220135,-478.11369,-1093.9307)"
         id="g4275"
         style="font-size:144px;font-style:normal;font-variant:normal;font-weight:normal;font-stretch:normal;text-align:start;line-height:125%;letter-spacing:0px;word-spacing:0px;writing-mode:lr-tb;text-anchor:start;fill:#000000;fill-opacity:1;stroke:#9c6000;stroke-width:0.39521116;stroke-miterlimit:4;stroke-opacity:1;stroke-dasharray:none;font-family:Serif;-inkscape-font-specification:Serif">
        <path
           style="fill:#ffffff;fill-rule:evenodd;stroke:#9c6000;stroke-width:0.39521116;stroke-miterlimit:4;stroke-opacity:1;stroke-dasharray:none"
           inkscape:connector-curvature="0"
           clip-rule="evenodd"
           d="m 160.403,102.261 v 46.326 c 0,0 -6.507,0.911 -10.281,0.911 -3.773,0 -12.883,-0.65 -16.006,-0.65 -3.123,0 -7.287,0.911 -8.328,1.562 -1.041,0.651 -3.433,1.766 -3.433,1.766 v -48.229 c 0,0 2.521,-1.686 11.11,-1.686 8.589,0 12.883,1.041 15.615,1.041 2.734,0 11.323,-1.041 11.323,-1.041 z"
           id="path4277" />
        <path
           style="fill:none;stroke:#9c6000;stroke-width:0.39521116;stroke-miterlimit:4;stroke-opacity:1;stroke-dasharray:none"
           inkscape:connector-curvature="0"
           clip-rule="evenodd"
           stroke-miterlimit="3.8637"
           d="m 160.403,102.261 v 46.326 c 0,0 -6.507,0.911 -10.281,0.911 -3.773,0 -12.883,-0.65 -16.006,-0.65 -3.123,0 -7.287,0.911 -8.328,1.562 -1.041,0.651 -3.433,1.766 -3.433,1.766 v -48.229 c 0,0 2.521,-1.686 11.11,-1.686 8.589,0 12.883,1.041 15.615,1.041 2.734,0 11.323,-1.041 11.323,-1.041 z"
           id="path4279" />
      </g>
      <path
         id="path4241"
         d="m 192.26965,53.4515 v 519.78394 c 0,0 51.74109,10.22155 81.75043,10.22155 30.00934,0 102.44044,-7.29306 127.27329,-7.29306 24.83279,0 57.94331,10.22155 66.22092,17.52582 8.27757,7.30432 27.2978,19.81478 27.2978,19.81478 V 72.368645 c 0,0 -20.04595,-18.917145 -88.34223,-18.917145 -68.29628,0 -102.44044,11.680161 -124.17218,11.680161 -21.73175,0 -90.02803,-11.680161 -90.02803,-11.680161 z"
         clip-rule="evenodd"
         inkscape:connector-curvature="0"
         style="font-size:144px;font-style:normal;font-variant:normal;font-weight:normal;font-stretch:normal;text-align:start;line-height:125%;letter-spacing:0px;word-spacing:0px;writing-mode:lr-tb;text-anchor:start;fill:#ffffff;fill-opacity:1;fill-rule:evenodd;stroke:#9c6000;stroke-width:3.73297787;stroke-miterlimit:4;stroke-opacity:1;stroke-dasharray:none;font-family:Serif;-inkscape-font-specification:Serif" />
    </g>
  </g>
</svg>
